<svg xmlns="http://www.w3.org/2000/svg" version="1.1" xmlns:xlink="http://www.w3.org/1999/xlink" xmlns:svgjs="http://svgjs.com/svgjs" width="512" height="512" x="0" y="0" viewBox="0 0 340 340" style="enable-background:new 0 0 512 512" xml:space="preserve" class=""><g><path fill="#595975" d="M177.722 38.046a26.536 26.536 0 0 0-26.17-22.188h-35.126a26.535 26.535 0 0 0-26.169 22.188C87.3 55.784 83.64 73.7 83.64 73.7l21.014-3.537c-.107-8.624 1.312-18.609 2.723-26.3a15.382 15.382 0 0 1 15.136-12.6h22.953a15.383 15.383 0 0 1 15.136 12.6c1.411 7.7 2.83 17.68 2.723 26.3l21.014 3.537s-3.662-17.916-6.617-35.654z" data-original="#595975"></path><path fill="#678ad0" d="M218.577 324.007h16.944a39.162 39.162 0 0 0 39.173-39.376c-.289-49.081-4.8-139.626-63.843-201.208 0 0-18.8-21.029-53.748-28.329a94.593 94.593 0 0 0-44.803 1.468c-14.974 4.19-34.114 12.647-43.156 29.4z" data-original="#678ad0"></path><path fill="#e0898d" d="m132.34 88.831 5.186-9.9a9.427 9.427 0 0 1 12.739-3.968l25.308 13.312-10.832 25.8z" data-original="#e0898d"></path><path fill="#ffffff" d="m279.917 156.538 20.062-13.268a4.817 4.817 0 0 1 6.849 1.645l12.119 21.415a4.044 4.044 0 0 1-1.239 5.333l-9.561 6.526a17.883 17.883 0 0 0-4.967 3.39l-8.95 6.109a12.533 12.533 0 0 0-4.967 3.39l-9.856 6.728a12.731 12.731 0 0 0-4.967 3.39l-10.156 6.932a20.089 20.089 0 0 0-4.966 3.39l-7.674 5.238-5.588-12.581z" data-original="#ffffff"></path><path fill="#b45f6d" d="m188.424 95.034-12.851-6.76-8.028 11.4a9.173 9.173 0 0 1-12.359 2.488c-10.283-6.42-18.56-11.024-22.846-13.332l-8.178 15.614 45.978 29.577 7.81-16.655z" data-original="#b45f6d"></path><path fill="#cbd5ea" d="m279.917 156.538-70.789 46.814 17.74 30.315 24.776-16.911a55.335 55.335 0 0 0-.488-8.131 11.728 11.728 0 0 1 1.563-7.7z" data-original="#cbd5ea"></path><path fill="#ffc676" d="m173.284 114.078 21.534-40.587a11.944 11.944 0 0 1 16.882-4.552 720.153 720.153 0 0 1 68.356 48.779 11.97 11.97 0 0 1 2.734 15.524l-35.917 59.312z" data-original="#ffc676" class=""></path><path fill="#f4914e" d="M246.872 192.554c-12.2-30.709-45.5-58.965-73.588-78.476L162.7 134.022l66.86 87.117z" data-original="#f4914e"></path><path fill="#99c5f9" d="M80.039 80.7S163 125.115 230.881 191.317c0 0 9.541 12.137 13.361 66.708l-212.455-52.8C29.773 160.567 33.167 83.667 80.039 80.7z" data-original="#99c5f9" class=""></path><path fill="#678ad0" d="M165.112 199.041H57.081a54.617 54.617 0 0 0-25.292 6.18c.831 18.411 2.579 31.349 2.579 31.349l153.984 87.572 30.225-.135a27.162 27.162 0 0 0 27.039-27.347l-.07-10.229c-.261-10.557-.716-19.982-1.306-28.406a82.585 82.585 0 0 0-79.128-58.984z" data-original="#678ad0"></path><path fill="#dcf4ff" d="M80.039 80.7s16.8 13.656 25.812 51.006c8.114 33.614 41.525 45.582 83.1 46.466a68.67 68.67 0 0 1 28.122 6.564l13.808 6.581S217.046 166.3 166.01 125.24C120.975 89.006 80.039 80.7 80.039 80.7z" data-original="#dcf4ff" class=""></path><path fill="#616181" d="m66.355 80.188.093-.027a4.761 4.761 0 0 1 5.928 3.357c1.407 5.386 3.482 15.77 3.817 31.046a6.1 6.1 0 0 1-6.486 6.2l-2.313-.145a6.105 6.105 0 0 1-5.71-5.748c-.4-6.926-.687-19.406 1.31-30.923a4.751 4.751 0 0 1 3.361-3.76z" data-original="#616181"></path><path fill="#99c5f9" d="M65.374 212.686h86.734a67.46 67.46 0 0 1 67.46 67.46v12.78a31.216 31.216 0 0 1-31.216 31.216H50.29a29.749 29.749 0 0 1-29.749-29.749V257.52a44.833 44.833 0 0 1 44.833-44.833z" data-original="#99c5f9" class=""></path><path fill="#616181" d="m79.652 209.21-.105-.023a5.318 5.318 0 0 0-6.351 4.191c-1.159 6.107-2.683 17.836-1.9 34.883a6.809 6.809 0 0 0 7.7 6.414l2.567-.338a6.817 6.817 0 0 0 5.926-6.838c-.079-7.748-.707-21.675-3.8-34.357a5.3 5.3 0 0 0-4.037-3.932z" data-original="#616181"></path><path fill="#f4914e" d="M237.608 151.177a3.485 3.485 0 0 1-2.377-.933 311.539 311.539 0 0 0-36.285-29.083 3.5 3.5 0 0 1 3.936-5.789 318.622 318.622 0 0 1 37.106 29.737 3.5 3.5 0 0 1-2.38 6.068zM243.346 121.766a3.492 3.492 0 0 1-2.451-1 117.608 117.608 0 0 0-17.354-13.9 3.5 3.5 0 1 1 3.882-5.826 124.577 124.577 0 0 1 18.377 14.727 3.5 3.5 0 0 1-2.451 6z" data-original="#f4914e"></path><path fill="#3c3c4f" d="M17.041 294.392a33.287 33.287 0 0 0 33.249 33.25l185.231-.135a42.663 42.663 0 0 0 42.673-42.9 507.029 507.029 0 0 0-3.774-62.174 3.5 3.5 0 0 0-6.941.9 492.451 492.451 0 0 1 3.715 61.312 35.643 35.643 0 0 1-33.115 35.755q1.129-.944 2.18-2a30.46 30.46 0 0 0 8.857-21.769l-.071-10.29c-.654-26.457-2.531-46-4.76-60.328l75.4-51.464a7.591 7.591 0 0 0 2.311-9.946l-12.119-21.416a8.318 8.318 0 0 0-11.825-2.841l-25.808 17.068 13.542-22.363a15.516 15.516 0 0 0-3.534-20.065 727.5 727.5 0 0 0-68.692-49.011 15.4 15.4 0 0 0-17.768 1 114.461 114.461 0 0 0-10.349-5.8c-1.164-6.086-2.8-14.9-4.268-23.7a29.946 29.946 0 0 0-29.623-25.112h-35.126A29.945 29.945 0 0 0 86.8 37.47c-1.912 11.484-4.139 23.111-5.363 29.354a53.652 53.652 0 0 0-10.943 10.607 8.216 8.216 0 0 0-4.657-.034l-.093.027h-.012a8.291 8.291 0 0 0-5.772 6.247C23.3 107.55 26.467 190.085 29.614 225.036a48.148 48.148 0 0 0-12.573 32.484zm284.869-148.2a1.317 1.317 0 0 1 1.872.449l12.118 21.413a.541.541 0 0 1-.166.718l-8.953 6.111-2.4-4.077a3.5 3.5 0 0 0-6.033 3.55l2.637 4.482-8.122 5.545-2.522-4.286a3.5 3.5 0 1 0-6.033 3.55l2.76 4.691-9.028 6.162-5.28-8.973a3.5 3.5 0 1 0-6.033 3.549l5.518 9.379-9.327 6.367-2.458-4.176a3.5 3.5 0 1 0-6.033 3.55l2.7 4.582-14.138 9.65a188.114 188.114 0 0 0-2-9.394l22.786-37.628c.015-.009.03-.014.044-.023zm-104-71.057a8.4 8.4 0 0 1 5.306-4.222 8.3 8.3 0 0 1 6.622.993 720.474 720.474 0 0 1 68.024 48.542 8.493 8.493 0 0 1 1.934 10.984l-41.406 68.374c-2.149-6.533-3.932-9.466-4.546-10.359-1.395-2.438-15.663-26.157-62.449-64.34zm-34.093 52.835c30.575 24.6 47.7 43.457 56.386 54.384 0 0-16.619-7.5-31.177-7.678-46.164-.571-73-15.715-79.773-43.789-5.2-21.551-12.939-35.467-18.8-43.593 15.012 4.94 43.375 16.545 73.364 40.673zm-32.229-30.159 9.038-17.257a5.928 5.928 0 0 1 8.009-2.5l31.114 16.367-13.906 26.21a259.725 259.725 0 0 0-34.255-22.82zM93.71 38.621a22.965 22.965 0 0 1 22.716-19.263h35.126a22.966 22.966 0 0 1 22.717 19.263 993.904 993.904 0 0 0 3.391 19.067 115.65 115.65 0 0 0-11.983-4.1c-.431-3.3-.974-6.771-1.633-10.365a18.879 18.879 0 0 0-18.578-15.472h-22.953a18.879 18.879 0 0 0-18.578 15.472 195.73 195.73 0 0 0-1.95 12.976 93.748 93.748 0 0 0-12.429 5.521c1.22-6.393 2.768-14.781 4.154-23.099zm64.65 13.166a125.7 125.7 0 0 0-49.02 2q.6-4.455 1.48-9.3a11.881 11.881 0 0 1 11.693-9.735h22.953a11.881 11.881 0 0 1 11.693 9.734q.689 3.758 1.201 7.301zm-45.119 8.145a91.43 91.43 0 0 1 43.146-1.413 108.036 108.036 0 0 1 35 13.981l-8.357 15.742-31.136-16.378a12.928 12.928 0 0 0-17.469 5.442l-9 17.19C100.723 81.665 88.467 79 80.1 77.12c7.542-7.42 18.461-13.08 33.141-17.188zM66.789 85.145a1.24 1.24 0 0 1 .877-.99l.092-.026a1.286 1.286 0 0 1 .994.117 1.208 1.208 0 0 1 .584.76c1.239 4.745 3.369 14.984 3.7 30.237a2.917 2.917 0 0 1-2.767 2.629l-2.312-.146a2.611 2.611 0 0 1-2.437-2.457c-.365-6.395-.692-18.814 1.269-30.124zM24.041 257.52a41.333 41.333 0 0 1 41.333-41.334h3.578a165.773 165.773 0 0 0-1.226 31.049 12.858 12.858 0 0 0 .664 3.375c2.614 8.04 13.562 6.22 13.562 6.22a10.332 10.332 0 0 0 8.97-10.345c-.078-7.551-.7-22.286-4.01-35.577a8.18 8.18 0 0 0-6.588-6.1h-.006l-.1-.023a8.583 8.583 0 0 0-4.409.161 8.921 8.921 0 0 0-5.2 4.238h-5.235a48.084 48.084 0 0 0-29.232 9.875c-2.242-29.454-4.45-100.032 22.567-125.517a166.154 166.154 0 0 0-.173 22.131 9.619 9.619 0 0 0 8.985 9.04s6.724.344 9.575-2.515a9.81 9.81 0 0 0 2.942-7.108c-.323-14.719-2.2-25.053-3.784-31.281a10.149 10.149 0 0 1 2.149.12c2.9 2.712 16.333 16.645 24.045 48.6 7.617 31.552 36.7 47.849 86.429 49.144a81.184 81.184 0 0 1 19.4 2.79 36.852 36.852 0 0 1 26.11 27.074c3.246 13.765 6.719 37 7.657 74.92l.067 9.734a24.3 24.3 0 0 1-6.251 16.684 23.522 23.522 0 0 1-17.3 7.634l-9.212.041a34.675 34.675 0 0 0 13.719-27.622v-12.78a70.96 70.96 0 0 0-70.96-70.96H99.36a3.634 3.634 0 0 0-3.693 3.312 3.5 3.5 0 0 0 3.5 3.688h52.946a63.96 63.96 0 0 1 63.96 63.96v12.78a27.717 27.717 0 0 1-27.627 27.716H50.29a26.249 26.249 0 0 1-26.249-26.249zm52.527-44.468a1.776 1.776 0 0 1 .769-1.154 1.846 1.846 0 0 1 1.015-.308 1.874 1.874 0 0 1 .4.042l.1.022A1.8 1.8 0 0 1 80.217 213c3.052 12.5 3.632 26.391 3.7 33.562a3.324 3.324 0 0 1-2.884 3.332s-6.116 1.8-6.31-2.767c-.723-17.069.821-28.674 1.845-34.075z" data-original="#3c3c4f" class=""></path></g></svg>