<svg xmlns="http://www.w3.org/2000/svg" version="1.1" xmlns:xlink="http://www.w3.org/1999/xlink" xmlns:svgjs="http://svgjs.com/svgjs" width="512" height="512" x="0" y="0" viewBox="0 0 512 512" style="enable-background:new 0 0 512 512" xml:space="preserve" class=""><g><path d="m414.996 55.632-133.445 96.954 223.595 162.453A255.786 255.786 0 0 0 512 256.123c0-81.129-37.942-153.555-97.004-200.491zM388.984 37.449C350.202 13.776 304.666.122 256 .122c-52.302 0-100.982 15.778-141.555 42.807l50.996 156.936zM89.141 62.132C34.595 109.115 0 178.652 0 256.122c0 23.805 3.278 46.856 9.385 68.739h165.129zM19.817 354.862c37.401 89.128 123.835 152.773 225.365 157.016l51.017-157.016zM276.925 511.262c100.648-8.181 185.011-74.829 218.996-165.845l-133.577-97.05z" fill="#000000" data-original="#000000" class=""></path></g></svg>