<svg xmlns="http://www.w3.org/2000/svg" version="1.1" xmlns:xlink="http://www.w3.org/1999/xlink" xmlns:svgjs="http://svgjs.com/svgjs" width="512" height="512" x="0" y="0" viewBox="0 0 64 64" style="enable-background:new 0 0 512 512" xml:space="preserve" class=""><g><g data-name="Layer 53"><path d="M12 18.61a.75.75 0 0 0 .75-.75v-5.11h5.11a.75.75 0 0 0 0-1.5H12a.76.76 0 0 0-.75.75v5.86a.75.75 0 0 0 .75.75ZM17.86 51.25h-5.11v-5.11a.75.75 0 0 0-1.5 0V52a.76.76 0 0 0 .75.75h5.86a.75.75 0 0 0 0-1.5ZM52 45.39a.75.75 0 0 0-.75.75v5.11h-5.11a.75.75 0 0 0 0 1.5H52a.76.76 0 0 0 .75-.75v-5.86a.75.75 0 0 0-.75-.75ZM52 11.25h-5.86a.75.75 0 0 0 0 1.5h5.11v5.11a.75.75 0 0 0 1.5 0V12a.76.76 0 0 0-.75-.75ZM13.71 32a.75.75 0 0 0 .75.75h35.08a.75.75 0 0 0 0-1.5H14.46a.75.75 0 0 0-.75.75Z" fill="#000000" data-original="#000000" class=""></path><path d="M48 60.75H16A12.76 12.76 0 0 1 3.25 48V16A12.76 12.76 0 0 1 16 3.25h32A12.76 12.76 0 0 1 60.75 16v32A12.76 12.76 0 0 1 48 60.75Zm-32-56A11.27 11.27 0 0 0 4.75 16v32A11.27 11.27 0 0 0 16 59.25h32A11.27 11.27 0 0 0 59.25 48V16A11.27 11.27 0 0 0 48 4.75Z" fill="#000000" data-original="#000000" class=""></path></g></g></svg>