<svg xmlns="http://www.w3.org/2000/svg" version="1.1" xmlns:xlink="http://www.w3.org/1999/xlink" xmlns:svgjs="http://svgjs.com/svgjs" width="512" height="512" x="0" y="0" viewBox="0 0 24 24" style="enable-background:new 0 0 512 512" xml:space="preserve" class=""><g><path d="M12 7c-2.75 0-5 2.25-5 5s2.25 5 5 5 5-2.25 5-5-2.25-5-5-5zm0 2c1.669 0 3 1.332 3 3s-1.331 3-3 3-3-1.33-3-3 1.331-3 3-3zM6 2C3.801 2 2 3.801 2 6v2a1 1 0 0 0 1 1 1 1 0 0 0 1-1V6c0-1.125.875-2 2-2h2a1 1 0 0 0 1-1 1 1 0 0 0-1-1zM3 15a1 1 0 0 0-1 1v2c0 2.199 1.801 4 4 4h2a1 1 0 0 0 1-1 1 1 0 0 0-1-1H6c-1.125 0-2-.875-2-2v-2a1 1 0 0 0-1-1zM21 15a1 1 0 0 0-1 1v2c0 1.125-.875 2-2 2h-2a1 1 0 0 0-1 1 1 1 0 0 0 1 1h2c2.199 0 4-1.801 4-4v-2a1 1 0 0 0-1-1zM16 2a1 1 0 0 0-1 1 1 1 0 0 0 1 1h2c1.125 0 2 .875 2 2v2a1 1 0 0 0 1 1 1 1 0 0 0 1-1V6c0-2.199-1.801-4-4-4z" fill="#000000" data-original="#000000" class=""></path></g></svg>