<svg xmlns="http://www.w3.org/2000/svg" version="1.1" xmlns:xlink="http://www.w3.org/1999/xlink" xmlns:svgjs="http://svgjs.com/svgjs" width="512" height="512" x="0" y="0" viewBox="0 0 511.88 511.88" style="enable-background:new 0 0 512 512" xml:space="preserve" class=""><g><path fill="#ecf4ff" d="M22.53 82.765h481.88v338.83H22.53z" data-original="#ecf4ff" class=""></path><path fill="#d5e7fd" d="M255.94 82.765h248.47v338.83H255.94z" data-original="#d5e7fd" class=""></path><path fill="#3f558f" d="M361.352 421.595v60.23c0 8.29-15.674 7.42-25.352 7.42l-166.726-.17c-9.678 0-18.745 1.04-18.745-7.25v-60.23c0-8.29 7.834-15 17.512-15H343.84c9.678 0 17.512 6.71 17.512 15z" data-original="#3f558f" class=""></path><path fill="#1c3470" d="M361.352 421.595v60.23c0 8.29-8.123 9.122-17.801 9.122l-87.611 1.702v-86.054h87.9c9.678 0 17.512 6.71 17.512 15z" data-original="#1c3470"></path><path fill="#5a729e" d="M421.53 481.825c0 8.29-6.72 15-15 15H105.35c-8.28 0-15-6.71-15-15 0-8.28 6.72-15 15-15h150.59l116.064 10.335c8.28 0 49.526-3.615 49.526 4.665z" data-original="#5a729e" class=""></path><path fill="#3f558f" d="M421.53 481.825c0 8.29-6.72 15-15 15H255.94v-30h150.59c8.28 0 15 6.72 15 15z" data-original="#3f558f" class=""></path><path fill="#5a729e" d="M511.88 82.765v338.83c0 8.28-6.72 15-15 15H15c-8.28 0-15-6.72-15-15V82.765c0-8.29 6.72-15 15-15h90.35c8.28 0 15 6.71 15 15 0 8.28-6.72 15-15 15H30v308.83h451.88V97.765h-67.82c-8.28 0-15-6.72-15-15 0-8.29 6.72-15 15-15h82.82c8.28 0 15 6.71 15 15z" data-original="#5a729e" class=""></path><path fill="#3f558f" d="M511.88 82.765v338.83c0 8.28-6.72 15-15 15H255.94v-30h225.94V97.765h-67.82c-8.28 0-15-6.72-15-15 0-8.29 6.72-15 15-15h82.82c8.28 0 15 6.71 15 15z" data-original="#3f558f" class=""></path><path fill="#5a729e" d="M368.82 102.845v70.27c0 6.21-3.82 11.77-9.62 14l-103.26 38.65c-3.987 0-2.468.028-103.27-38.65a14.998 14.998 0 0 1-9.61-14v-71.9c0-8.28 6.72-15 15-15s15 6.72 15 15c0 .215-7.406.068 165.77 1.51.06-8.23 6.75-14.88 14.99-14.88 8.28 0 15 6.72 15 15z" data-original="#5a729e" class=""></path><path fill="#3f558f" d="M368.82 102.845v70.27c0 6.21-3.82 11.77-9.62 14-100.43 38.678-99.307 38.65-103.26 38.65v-123.73l82.89.69c.06-8.23 6.75-14.88 14.99-14.88 8.28 0 15 6.72 15 15z" data-original="#3f558f" class=""></path><path fill="#3f558f" d="M429.06 82.765v105.41c0 8.29-6.72 15-15 15s-15-6.71-15-15l6.306-95.696-149.426 57.996c-3.661 0-2.149.014-155.54-53.55-13.365-4.684-13.366-23.635 0-28.32 153.2-53.596 151.877-53.55 155.54-53.55l146.532 59.551c6.13 2.04 26.588 1.699 26.588 8.159z" data-original="#3f558f" class=""></path><path fill="#1c3470" d="M429.06 82.765v105.41c0 8.29-6.72 15-15 15s-15-6.71-15-15v-84.6c-140.035 46.946-139.604 46.9-143.12 46.9V15.055c3.487 0 1.856 0 162.86 53.48a14.991 14.991 0 0 1 10.26 14.23z" data-original="#1c3470"></path><path fill="#fc6284" d="M135.469 271.062H75.234c-8.284 0-15 6.716-15 15v60.235c0 8.284 6.716 15 15 15h60.235c8.284 0 15-6.716 15-15v-60.235c0-8.284-6.716-15-15-15z" data-original="#fc6284"></path><path fill="#01c1f0" d="M451.65 286.065c0 8.28-6.72 15-15 15H195.7c-8.28 0-15-6.72-15-15 0-8.29 6.72-15 15-15h240.95c8.28 0 15 6.71 15 15zM451.65 346.295c0 8.29-6.72 15-15 15H195.7c-8.28 0-15-6.71-15-15 0-8.28 6.72-15 15-15h240.95c8.28 0 15 6.72 15 15z" data-original="#01c1f0"></path><g fill="#00ade9"><path d="M451.65 346.295c0 8.29-6.72 15-15 15H255.94v-30h180.71c8.28 0 15 6.72 15 15zM436.65 301.065H255.94v-30h180.71c8.28 0 15 6.71 15 15 0 8.28-6.72 15-15 15z" fill="#00ade9" data-original="#00ade9" class=""></path></g></g></svg>