<svg xmlns="http://www.w3.org/2000/svg" version="1.1" xmlns:xlink="http://www.w3.org/1999/xlink" xmlns:svgjs="http://svgjs.com/svgjs" width="512" height="512" x="0" y="0" viewBox="0 0 512 512" style="enable-background:new 0 0 512 512" xml:space="preserve" class=""><g><path fill="#8ffaff" d="M86.5 35.75h339v30h-339zM86.5 446.25h339v30h-339z" data-original="#8ffaff" class=""></path><path fill="#3be2e2" d="M256 35.75h169.5v30H256zM256 446.25h169.5v30H256z" data-original="#3be2e2" class=""></path><path fill="#455da0" d="M376.95 142v55.13h-30V172H271v170.85h26v30h-82v-30h26V172h-75.95v25.13h-30V142z" data-original="#455da0"></path><path fill="#8ffaff" d="M35.75 86.5h30V421h-30z" data-original="#8ffaff" class=""></path><path fill="#3be2e2" d="M446.25 86.5h30V421h-30z" data-original="#3be2e2" class=""></path><g fill="#50c5ff"><path d="M57.667 115.333c31.797 0 57.666-25.869 57.666-57.667C115.333 25.869 89.464 0 57.667 0 25.869 0 0 25.869 0 57.667c0 31.797 25.869 57.666 57.667 57.666zM57.667 396.667C25.869 396.667 0 422.536 0 454.333 0 486.131 25.869 512 57.667 512c31.797 0 57.666-25.869 57.666-57.667 0-31.797-25.869-57.666-57.666-57.666z" fill="#50c5ff" data-original="#50c5ff"></path></g><g fill="#488aff"><path d="M454.333 115.333c31.798 0 57.667-25.869 57.667-57.667C512 25.869 486.131 0 454.333 0c-31.797 0-57.666 25.869-57.666 57.667 0 31.797 25.869 57.666 57.666 57.666zM454.333 396.667c-31.797 0-57.666 25.869-57.666 57.667 0 31.797 25.869 57.667 57.666 57.667C486.131 512 512 486.131 512 454.333c0-31.797-25.869-57.666-57.667-57.666z" fill="#488aff" data-original="#488aff"></path></g><path fill="#1f4271" d="M297 372.85h-41V142h120.95v55.13h-30V172H271v170.85h26z" data-original="#1f4271"></path></g></svg>