<svg xmlns="http://www.w3.org/2000/svg" version="1.1" xmlns:xlink="http://www.w3.org/1999/xlink" xmlns:svgjs="http://svgjs.com/svgjs" width="512" height="512" x="0" y="0" viewBox="0 0 24 24" style="enable-background:new 0 0 512 512" xml:space="preserve" class=""><g><linearGradient id="a" x1="2.25" x2="21.75" y1="21.25" y2="21.25" gradientUnits="userSpaceOnUse"><stop offset="0" stop-color="#16b0e2"></stop><stop offset="1" stop-color="#6e5af0"></stop></linearGradient><linearGradient xlink:href="#a" id="b" x1="11.864" x2="20.5" y1="6.318" y2="6.318"></linearGradient><linearGradient xlink:href="#a" id="c" x1="3.5" x2="16.456" y1="12.522" y2="12.522"></linearGradient><g data-name="1"><path fill="url(#a)" d="M21 22H3a.75.75 0 0 1 0-1.5h18a.75.75 0 0 1 0 1.5z" opacity=".4" data-original="url(#a)" class=""></path><path fill="url(#b)" d="M20.5 6.412A4.157 4.157 0 0 1 19.025 9.3l-1.2 1.212a.407.407 0 0 1-.289.12.459.459 0 0 1-.122-.016 8.123 8.123 0 0 1-5.534-5.528.407.407 0 0 1 .1-.4l1.22-1.212c1.993-1.991 3.885-1.945 5.829 0A4.2 4.2 0 0 1 20.5 6.412z" opacity=".4" data-original="url(#b)"></path><path fill="url(#c)" d="m16.456 11.873-6.281 6.281a1.146 1.146 0 0 1-.555.277l-3.835.542a2.32 2.32 0 0 1-.359.027 1.931 1.931 0 0 1-1.384-.541 2.013 2.013 0 0 1-.515-1.747l.543-3.831a1.146 1.146 0 0 1 .277-.555l6.281-6.282c.1.274.21.555.35.859.132.279.278.558.436.824a6.336 6.336 0 0 0 .388.591 6.028 6.028 0 0 0 .416.548.853.853 0 0 0 .146.179 8.715 8.715 0 0 0 1.036 1.037 1.25 1.25 0 0 0 .174.152 7.056 7.056 0 0 0 .564.429 7.013 7.013 0 0 0 .64.424c.267.157.544.3.836.441s.57.247.842.345z" data-original="url(#c)" class=""></path></g></g></svg>