<svg xmlns="http://www.w3.org/2000/svg" version="1.1" xmlns:xlink="http://www.w3.org/1999/xlink" xmlns:svgjs="http://svgjs.com/svgjs" width="512" height="512" x="0" y="0" viewBox="0 0 50 50" style="enable-background:new 0 0 512 512" xml:space="preserve" class=""><g><path d="M43.4 6.6a5.44 5.44 0 0 0-7.71 0L16.12 26.22a1 1 0 0 0-.28.59L15 33.88a1 1 0 0 0 .28.82 1 1 0 0 0 .72.3h.11l7.13-.74a1 1 0 0 0 .6-.29L43.4 14.34a5.49 5.49 0 0 0 0-7.74zM22.68 32.29l-5.54.59.64-5.49 15.46-15.5 4.89 4.9zm16.86-16.91-4.89-4.91L37.1 8A3.53 3.53 0 0 1 42 8a3.47 3.47 0 0 1 0 4.9z" fill="#000000" data-original="#000000" class=""></path><path d="M39 38a5 5 0 0 1-5 5H12a5 5 0 0 1-5-5V16a5 5 0 0 1 5-5h15V9H12a7 7 0 0 0-7 7v22a7 7 0 0 0 7 7h22a7 7 0 0 0 7-7V23h-2z" fill="#000000" data-original="#000000" class=""></path></g></svg>