<svg xmlns="http://www.w3.org/2000/svg" version="1.1" xmlns:xlink="http://www.w3.org/1999/xlink" xmlns:svgjs="http://svgjs.com/svgjs" width="512" height="512" x="0" y="0" viewBox="0 0 24 24" style="enable-background:new 0 0 512 512" xml:space="preserve" class=""><g><path fill="#000000" fill-rule="evenodd" d="M11.268 3.529c.745-.271 1.603-.293 2.548.022a1 1 0 1 1-.632 1.898c-.555-.185-.947-.144-1.233-.04-.303.11-.572.323-.808.606a3.82 3.82 0 0 0-.528.864 4.04 4.04 0 0 0-.15.384l-.004.013-.2.724H14a1 1 0 0 1 .949.684l.51 1.532c.293-.354.589-.69.885-.982.37-.366.785-.711 1.237-.945.46-.239 1.015-.39 1.615-.27a1 1 0 1 1-.392 1.961c-.025-.004-.11-.015-.303.085-.2.103-.45.294-.751.591-.486.48-.99 1.12-1.533 1.832l.702 2.107c.018.03.043.069.074.113.082.114.18.222.276.29.087.063.125.06.13.06.006 0 .139-.01.394-.265a1 1 0 0 1 1.414 1.414c-.492.492-1.047.798-1.654.845a2.187 2.187 0 0 1-1.447-.426 3.263 3.263 0 0 1-.74-.756 3.74 3.74 0 0 1-.25-.404l-.006-.011-.003-.004v-.002s-.001-.002.893-.45l-.894.448a1.004 1.004 0 0 1-.055-.13l-.31-.93a11.4 11.4 0 0 1-1.12 1.194c-.711.636-1.788 1.329-2.992.847a1 1 0 0 1 .742-1.857c.046.019.282.087.915-.48.526-.47 1.085-1.168 1.7-1.972L13.279 10H9.705l-1.741 6.268a.99.99 0 0 1-.028.083L7 16c.936.351.937.35.936.351v.004l-.003.005-.005.014a3.8 3.8 0 0 1-.082.196 8.068 8.068 0 0 1-.24.502c-.21.402-.532.94-.972 1.454-.872 1.018-2.393 2.109-4.45 1.423a1 1 0 0 1 .632-1.898c.943.314 1.672-.095 2.3-.827.31-.362.55-.76.716-1.077a6.094 6.094 0 0 0 .219-.466L7.629 10H5.5a1 1 0 1 1 0-2h2.684l.354-1.275L9.5 7l-.962-.275.001-.002v-.002l.002-.005.004-.014a3.046 3.046 0 0 1 .061-.184 6.05 6.05 0 0 1 .185-.46c.164-.364.427-.857.816-1.323.389-.467.932-.941 1.66-1.206z" clip-rule="evenodd" data-original="#000000" class=""></path></g></svg>