<svg xmlns="http://www.w3.org/2000/svg" version="1.1" xmlns:xlink="http://www.w3.org/1999/xlink" xmlns:svgjs="http://svgjs.com/svgjs" width="512" height="512" x="0" y="0" viewBox="0 0 64 64" style="enable-background:new 0 0 512 512" xml:space="preserve" class=""><g><g data-name="Tools"><path fill="#ffcd00" d="M39 35.31V25l-6 6v10.31z" data-original="#ffcd00"></path><path fill="#ffcd00" d="M47 17v11.31l6-6V53H22.31l4-4H15L3 61h58V3z" data-original="#ffcd00"></path><path fill="#ebbf00" d="M58 6v55h3V3z" data-original="#ebbf00"></path><path fill="#754c29" d="M40.764 44.528 43 49l2.236-4.472a5 5 0 0 0-4.472 0z" data-original="#754c29"></path><path fill="#d80027" d="m43 38 4 3V13h-4z" data-original="#d80027"></path><path fill="#f7941d" d="m39 41 4-3V13h-4V35.31z" data-original="#f7941d"></path><path fill="#d1d3d4" d="M43 44a4.941 4.941 0 0 1 2.236.528L47 41l-4-3-4 3 1.764 3.528A4.941 4.941 0 0 1 43 44z" data-original="#d1d3d4"></path><path fill="#2488ff" d="M47 13V9h-8v4h4z" data-original="#2488ff"></path><path fill="#f1f2f2" d="M47 7a4 4 0 0 0-8 0v2h8z" data-original="#f1f2f2"></path><path fill="#bd0022" d="M45 13v26.5l2 1.5V13z" data-original="#bd0022"></path><path fill="#006df0" d="M45 9h2v4h-2z" data-original="#006df0"></path><path fill="#d1d3d4" d="M43 3a3.977 3.977 0 0 0-1 .141A3.991 3.991 0 0 1 45 7v2h2V7a4 4 0 0 0-4-4z" data-original="#d1d3d4"></path><rect width="30" height="46" x="3" y="3" fill="#006df0" rx="2" data-original="#006df0"></rect><path fill="#005ece" d="M31 3h-1a2.006 2.006 0 0 1 2 2v42a2.006 2.006 0 0 1-2 2h1a2.006 2.006 0 0 0 2-2V5a2.006 2.006 0 0 0-2-2z" data-original="#005ece"></path><path fill="#7ed63e" d="M30 17V6H6v11h12z" data-original="#7ed63e"></path><path fill="#9bc9ff" d="M18 17h12v10H18z" data-original="#9bc9ff"></path><path fill="#57a4ff" d="M6 17h12v10H6z" data-original="#57a4ff"></path><path fill="#9bc9ff" d="M6 27h12v10H6z" data-original="#9bc9ff"></path><path fill="#d80027" d="M18 37H6v9h24v-9z" data-original="#d80027"></path><path fill="#57a4ff" d="M18 27h12v10H18z" data-original="#57a4ff"></path><path d="M61.383 2.076a1 1 0 0 0-1.09.217L48 14.586V7a5 5 0 0 0-10 0v17.586l-4 4V5a3 3 0 0 0-3-3H5a3 3 0 0 0-3 3v42a3 3 0 0 0 3 3h7.586L2.293 60.293A1 1 0 0 0 3 62h58a1 1 0 0 0 1-1V3a1 1 0 0 0-.617-.924zM26.724 50H31a3 3 0 0 0 3-3v-5.276l4-4V41a1 1 0 0 0 .1.447l4 8a1 1 0 0 0 1.79 0l4-8A1 1 0 0 0 48 41V28.724l4-4V52H24.724zM46 39l-2-1.5V14h2zm-1.253 4.27a6.061 6.061 0 0 0-3.494 0l-.986-1.97L43 39.25l2.733 2.05zm-.914 1.83L43 46.764l-.833-1.664a4.1 4.1 0 0 1 1.666 0zM40 14h2v23.5L40 39zm6-2h-6v-2h6zm-6-5a3 3 0 0 1 6 0v1h-6zm-2 20.414V34.9l-4 4v-7.486zM4 47V5a1 1 0 0 1 1-1h26a1 1 0 0 1 1 1v42a1 1 0 0 1-1 1H5a1 1 0 0 1-1-1zm50 13v-3h-2v3h-4v-3h-2v3h-4v-3h-2v3h-4v-3h-2v3h-4v-3h-2v3h-4v-3h-2v3h-4v-3h-2v3H5.414l10-10H23.9l-2.3 2.293A1 1 0 0 0 22.31 54H53a1 1 0 0 0 1-1V22.31a1 1 0 0 0-1.707-.707L48 25.9v-8.486l12-12V16h-3v2h3v4h-3v2h3v4h-3v2h3v4h-3v2h3v4h-3v2h3v4h-3v2h3v4h-3v2h3v6z" fill="#000000" data-original="#000000" class=""></path><path d="M31 46V6a1 1 0 0 0-1-1H6a1 1 0 0 0-1 1v40a1 1 0 0 0 1 1h24a1 1 0 0 0 1-1zM7 36v-8h10v8zm22-18v8H19v-8zm-12 8H7v-8h10zm2 2h10v8H19zM7 7h22v9H7zm22 38H7v-7h22z" fill="#000000" data-original="#000000" class=""></path><path d="M11 25h2v-2h2v-2h-2v-2h-2v2H9v2h2zM13.414 29.172 12 30.586l-1.414-1.414-1.414 1.414L10.586 32l-1.414 1.414 1.414 1.414L12 33.414l1.414 1.414 1.414-1.414L13.414 32l1.414-1.414zM21 21h6v2h-6zM21 31v2h6v-2h-3zM15 39h6v2h-6zM15 42h6v2h-6zM24.38 30.92a.776.776 0 0 0 .18-.09l.15-.12.12-.15a.8.8 0 0 0 .09-.18.6.6 0 0 0 .059-.18A1.234 1.234 0 0 0 25 30a1 1 0 0 0-1.71-.71 1.032 1.032 0 0 0-.21.33A1 1 0 0 0 23 30a1.355 1.355 0 0 0 .02.2.636.636 0 0 0 .06.18.757.757 0 0 0 .09.18 1.576 1.576 0 0 0 .12.15l.149.12a.782.782 0 0 0 .181.09.636.636 0 0 0 .18.06 1.487 1.487 0 0 0 .2.02 1.369 1.369 0 0 0 .2-.02.646.646 0 0 0 .18-.06z" fill="#000000" data-original="#000000" class=""></path><path d="M24.71 33.29a1.712 1.712 0 0 0-.15-.12.776.776 0 0 0-.18-.09.646.646 0 0 0-.18-.06.9.9 0 0 0-.4 0 .636.636 0 0 0-.18.06.782.782 0 0 0-.181.09 1.7 1.7 0 0 0-.149.12.933.933 0 0 0-.21.33.943.943 0 0 0 0 .76 1.155 1.155 0 0 0 .21.33 1.014 1.014 0 0 0 1.42 0A1.052 1.052 0 0 0 25 34a1 1 0 0 0-.08-.38.933.933 0 0 0-.21-.33z" fill="#000000" data-original="#000000" class=""></path></g></g></svg>