<svg xmlns="http://www.w3.org/2000/svg" version="1.1" xmlns:xlink="http://www.w3.org/1999/xlink" xmlns:svgjs="http://svgjs.com/svgjs" width="512" height="512" x="0" y="0" viewBox="0 0 480 480" style="enable-background:new 0 0 512 512" xml:space="preserve" class=""><g><path d="M168 64h-56V8H64v56H8v48h56v56h48v-56h56V64z" style="" fill="#e9686a" data-original="#e9686a"></path><path d="M472 64v48H312V64h160z" style="" fill="#32b1cc" data-original="#32b1cc" class=""></path><path d="M472 352v48H312v-48h160z" style="" fill="#55b56a" data-original="#55b56a"></path><circle cx="392" cy="304" r="24" style="" fill="#55b56a" data-original="#55b56a"></circle><circle cx="392" cy="448" r="24" style="" fill="#55b56a" data-original="#55b56a"></circle><path d="M392 232H248V88h-16v144H88v16h144v144h16V248h144v-16z" style="" fill="#195c85" data-original="#195c85"></path><path d="m176 328-40-40-40 40-40-40-40 39.104L56 368l-40 40 40 40 40-40 40 40 40-40-40-40 40-40z" style="" fill="#f49e21" data-original="#f49e21"></path><path d="M56 176h64v-56h56V56h-56V0H56v56H0v64h56v56zm-40-72V72h56V16h32v56h56v32h-56v56H72v-56H16zM304 120h176V56H304v64zm16-48h144v32H320V72zM304 408h176v-64H304v64zm16-48h144v32H320v-32zM360 304c0 17.673 14.327 32 32 32s32-14.327 32-32-14.327-32-32-32-32 14.327-32 32zm48 0c0 8.837-7.163 16-16 16s-16-7.163-16-16 7.163-16 16-16 16 7.163 16 16zM424 448c0-17.673-14.327-32-32-32s-32 14.327-32 32 14.327 32 32 32 32-14.327 32-32zm-48 0c0-8.837 7.163-16 16-16s16 7.163 16 16-7.163 16-16 16-16-7.163-16-16zM232 88v144H88v16h144v144h16V248h144v-16H248V88h-16z" fill="#000000" data-original="#000000" class=""></path><path d="m56 459.312 40-40 40 40L187.312 408l-40-40 40-40L136 276.688l-40 40-39.936-39.936-51.376 50.224 40.064 40.96L4.688 408 56 459.312zM27.312 327.2l28.624-28L96 339.312l40-40L164.688 328l-40 40 40 40L136 436.688l-40-40-40 40L27.312 408l39.936-39.936L27.312 327.2z" fill="#000000" data-original="#000000" class=""></path></g></svg>