<svg xmlns="http://www.w3.org/2000/svg" version="1.1" xmlns:xlink="http://www.w3.org/1999/xlink" xmlns:svgjs="http://svgjs.com/svgjs" width="512" height="512" x="0" y="0" viewBox="0 0 64 64" style="enable-background:new 0 0 512 512" xml:space="preserve" class=""><g><path fill="#e6e9ed" d="M35 20c-2.76 0-5 2.24-5 5v32c0 .69.14 1.35.39 1.95L30 59H8V2h37v18z" data-original="#e6e9ed"></path><path fill="#fcd770" d="m14 39 13 14h-6l-7-7z" data-original="#fcd770"></path><path fill="#fcd770" d="M21 53h-7v-7z" data-original="#fcd770"></path><path fill="#969faa" d="M62 25v32c0 2.76-2.24 5-5 5H35c-2.07 0-3.85-1.26-4.61-3.05-.25-.6-.39-1.26-.39-1.95V25c0-2.76 2.24-5 5-5h22c2.76 0 5 2.24 5 5z" data-original="#969faa"></path><path fill="#ffeaa7" d="M56 34H36c-1.1 0-2 .9-2 2v20c0 1.1.9 2 2 2h20c1.1 0 2-.9 2-2V36c0-1.1-.9-2-2-2z" data-original="#ffeaa7"></path><path fill="#69d6f4" d="M58 26v2c0 1.1-.9 2-2 2H36c-1.1 0-2-.9-2-2v-2c0-1.1.9-2 2-2h20c1.1 0 2 .9 2 2z" data-original="#69d6f4"></path><path d="M49 39h6v2h-6zM39 43h2v-2h2v-2h-2v-2h-2v2h-2v2h2zM43.707 49.707l-1.414-1.414L40 50.586l-2.293-2.293-1.414 1.414L38.586 52l-2.293 2.293 1.414 1.414L40 53.414l2.293 2.293 1.414-1.414L41.414 52zM48.282 54.293l6-6 1.413 1.415-5.999 5.999z" fill="#000000" data-original="#000000"></path><circle cx="50" cy="50" r="1" fill="#000000" data-original="#000000"></circle><circle cx="54" cy="54" r="1" fill="#000000" data-original="#000000"></circle><path d="M56 33H36c-1.654 0-3 1.346-3 3v20c0 1.654 1.346 3 3 3h20c1.654 0 3-1.346 3-3V36c0-1.654-1.346-3-3-3zm1 3v9H47V35h9c.552 0 1 .449 1 1zm-21-1h9v10H35v-9c0-.551.448-1 1-1zm-1 21v-9h10v10h-9c-.552 0-1-.449-1-1zm21 1h-9V47h10v9c0 .551-.448 1-1 1zM56 23H36c-1.654 0-3 1.346-3 3v2c0 1.654 1.346 3 3 3h20c1.654 0 3-1.346 3-3v-2c0-1.654-1.346-3-3-3zm1 5c0 .551-.448 1-1 1H36c-.552 0-1-.449-1-1v-2c0-.551.448-1 1-1h20c.552 0 1 .449 1 1z" fill="#000000" data-original="#000000"></path><path d="M57 19H46V1H7v59h22.812A5.999 5.999 0 0 0 35 63h22c3.309 0 6-2.691 6-6V25c0-3.309-2.691-6-6-6zm-28 6v28.685L13 36.454V54h16v3c0 .341.035.674.09 1H9V3h35v16h-9a6.06 6.06 0 0 0-.558.028L31.414 16l3.293-3.293-1.414-1.414L30 14.586l-3.293-3.293-1.414 1.414L28.586 16l-3.293 3.293 1.414 1.414L30 17.414l2.256 2.256A6.001 6.001 0 0 0 29 25zM15 48.414 18.586 52H15zM21.414 52 15 45.586v-4.04L24.707 52zM61 57c0 2.206-1.794 4-4 4H35c-2.206 0-4-1.794-4-4V25c0-2.206 1.794-4 4-4h22c2.206 0 4 1.794 4 4z" fill="#000000" data-original="#000000"></path><circle cx="24" cy="36" r="1" fill="#000000" data-original="#000000"></circle><circle cx="20" cy="36" r="1" fill="#000000" data-original="#000000"></circle><path d="M13 31h14v2H13zM13 27h14v2H13zM20.094 24.097 24.738 9H40V7H23.262l-3.356 10.903L17.693 12H12v2h4.307z" fill="#000000" data-original="#000000"></path></g></svg>