<svg xmlns="http://www.w3.org/2000/svg" version="1.1" xmlns:xlink="http://www.w3.org/1999/xlink" xmlns:svgjs="http://svgjs.com/svgjs" width="512" height="512" x="0" y="0" viewBox="0 0 64 64" style="enable-background:new 0 0 512 512" xml:space="preserve" class=""><g><g data-name="10 edit"><path d="M55.849 26.681a1.5 1.5 0 0 0-1.5 1.5v25.994a3.348 3.348 0 0 1-3.344 3.344H9.345A3.348 3.348 0 0 1 6 54.175V14.452a3.348 3.348 0 0 1 3.345-3.345h26a1.5 1.5 0 0 0 0-3h-26A6.353 6.353 0 0 0 3 14.452v39.723a6.352 6.352 0 0 0 6.345 6.344h41.66a6.351 6.351 0 0 0 6.344-6.344V28.181a1.5 1.5 0 0 0-1.5-1.5z" fill="#000000" data-original="#000000"></path><path d="M59.426 8.481 56 5.056a5.381 5.381 0 0 0-7.6 0L23.677 29.777a4.452 4.452 0 0 0-1.223 2.351l-1.142 8.256a2.47 2.47 0 0 0 2.788 2.783l8.339-1.154A4.38 4.38 0 0 0 34.7 40.8l21.985-21.977 2.74-2.74a5.383 5.383 0 0 0 .001-7.602zm-26.844 30.2a1.379 1.379 0 0 1-.64.371L24.381 40.1l1.031-7.477a1.415 1.415 0 0 1 .388-.723l20.921-20.92 6.779 6.783zm24.723-24.719-1.68 1.68-6.785-6.786 1.68-1.679a2.374 2.374 0 0 1 3.359 0l3.426 3.423a2.381 2.381 0 0 1 0 3.362z" fill="#000000" data-original="#000000"></path></g></g></svg>