<svg xmlns="http://www.w3.org/2000/svg" version="1.1" xmlns:xlink="http://www.w3.org/1999/xlink" xmlns:svgjs="http://svgjs.com/svgjs" width="512" height="512" x="0" y="0" viewBox="0 0 32 32" style="enable-background:new 0 0 512 512" xml:space="preserve" class=""><g><g fill="#000" fill-rule="evenodd" clip-rule="evenodd"><path d="M11.755 24.755a1 1 0 0 1 1.415 0l2.83 2.83 2.83-2.83a1 1 0 0 1 1.415 1.415l-3.538 3.537a1 1 0 0 1-1.414 0l-3.538-3.537a1 1 0 0 1 0-1.415z" fill="#000000" data-original="#000000" class=""></path><path d="M16 19a1 1 0 0 1 1 1v9a1 1 0 1 1-2 0v-9a1 1 0 0 1 1-1zM15.293 2.293a1 1 0 0 1 1.414 0l3.538 3.537a1 1 0 0 1-1.415 1.415L16 4.415l-2.83 2.83a1 1 0 1 1-1.415-1.415z" fill="#000000" data-original="#000000" class=""></path><path d="M16 2a1 1 0 0 1 1 1v9a1 1 0 1 1-2 0V3a1 1 0 0 1 1-1zM7.245 11.755a1 1 0 0 1 0 1.415L4.415 16l2.83 2.83a1 1 0 1 1-1.415 1.415l-3.537-3.538a1 1 0 0 1 0-1.414l3.537-3.538a1 1 0 0 1 1.415 0z" fill="#000000" data-original="#000000" class=""></path><path d="M2 16a1 1 0 0 1 1-1h9a1 1 0 1 1 0 2H3a1 1 0 0 1-1-1zM24.755 11.755a1 1 0 0 1 1.415 0l3.537 3.538a1 1 0 0 1 0 1.414l-3.537 3.538a1 1 0 1 1-1.415-1.415l2.83-2.83-2.83-2.83a1 1 0 0 1 0-1.415z" fill="#000000" data-original="#000000" class=""></path><path d="M19 16a1 1 0 0 1 1-1h9a1 1 0 1 1 0 2h-9a1 1 0 0 1-1-1z" fill="#000000" data-original="#000000" class=""></path></g></g></svg>