<svg xmlns="http://www.w3.org/2000/svg" version="1.1" xmlns:xlink="http://www.w3.org/1999/xlink" xmlns:svgjs="http://svgjs.com/svgjs" width="512" height="512" x="0" y="0" viewBox="0 0 24 24" style="enable-background:new 0 0 512 512" xml:space="preserve" class=""><g><path d="M12 23.17c-.77 0-1.54-.29-2.12-.88l-4.24-4.24a3 3 0 0 1 0-4.24l4.24-4.24a3 3 0 0 1 4.24 0l4.24 4.24a3 3 0 0 1 0 4.24l-4.24 4.24a3 3 0 0 1-2.12.88zm-.71-2.29c.39.39 1.03.39 1.41 0l4.24-4.24c.39-.39.39-1.02 0-1.42l-4.24-4.24a.996.996 0 0 0-1.41 0l-4.24 4.24c-.39.39-.39 1.02 0 1.42z" fill="#000000" data-original="#000000" class=""></path><path d="M20.76 9.94a.96.96 0 0 1-.33.06c-.41 0-.8-.26-.94-.67A7.993 7.993 0 0 0 11.95 4C9.49 4 7.21 5.12 5.72 7H6c.55 0 1 .45 1 1s-.45 1-1 1H3c-.55 0-1-.45-1-1V5c0-.55.45-1 1-1s1 .45 1 1v.95A9.922 9.922 0 0 1 11.95 2c4.24 0 8.02 2.68 9.42 6.67a.988.988 0 0 1-.61 1.27z" fill="#000000" data-original="#000000" class=""></path></g></svg>