<svg xmlns="http://www.w3.org/2000/svg" version="1.1" xmlns:xlink="http://www.w3.org/1999/xlink" xmlns:svgjs="http://svgjs.com/svgjs" width="512" height="512" x="0" y="0" viewBox="0 0 100 100" style="enable-background:new 0 0 512 512" xml:space="preserve" class=""><g><path fill="#b5b5b5" d="M80.64 56.716 56.384 81.633a9.864 9.864 0 0 1-15.936-2.587L62.6 56.294a9.236 9.236 0 0 0-.007-12.894L40.685 20.965a9.859 9.859 0 0 1 15.929-2.605l24.019 24.6a9.854 9.854 0 0 1 .007 13.756z" data-original="#b5b5b5" class=""></path><path d="M57.447 52.283a9.179 9.179 0 0 1-2.292 4.011l-15.3 15.714-7.435 7.638a9.071 9.071 0 0 1-2.9 2.009A9.235 9.235 0 0 1 19.184 66.76l16.453-16.9-16.219-16.609a9.236 9.236 0 0 1 10.33-14.906 9.143 9.143 0 0 1 2.888 2l7.457 7.639L55.147 43.4a9.148 9.148 0 0 1 2.3 4.031 9.265 9.265 0 0 1 0 4.852z" fill="#000000" data-original="#000000" class=""></path></g></svg>