<svg xmlns="http://www.w3.org/2000/svg" version="1.1" xmlns:xlink="http://www.w3.org/1999/xlink" xmlns:svgjs="http://svgjs.com/svgjs" width="512" height="512" x="0" y="0" viewBox="0 0 128 128" style="enable-background:new 0 0 512 512" xml:space="preserve" class=""><g><path d="M76 100a3.988 3.988 0 0 1-2.828-1.172l-32-32a3.997 3.997 0 0 1 0-5.656l32-32c1.563-1.563 4.094-1.563 5.656 0s1.563 4.094 0 5.656L49.656 64l29.172 29.172a3.997 3.997 0 0 1 0 5.656A3.988 3.988 0 0 1 76 100zm52-36c0-35.289-28.711-64-64-64S0 28.711 0 64s28.711 64 64 64 64-28.711 64-64zm-8 0c0 30.879-25.121 56-56 56S8 94.879 8 64 33.121 8 64 8s56 25.121 56 56z" fill="#000000" data-original="#000000" class=""></path></g></svg>