<svg xmlns="http://www.w3.org/2000/svg" version="1.1" xmlns:xlink="http://www.w3.org/1999/xlink" xmlns:svgjs="http://svgjs.com/svgjs" width="512" height="512" x="0" y="0" viewBox="0 0 36 36" style="enable-background:new 0 0 512 512" xml:space="preserve" class=""><g><path fill="#000000" fill-rule="evenodd" d="M1.25 13A4.75 4.75 0 0 1 6 8.25h14A4.75 4.75 0 0 1 24.75 13v10A4.75 4.75 0 0 1 20 27.75H6A4.75 4.75 0 0 1 1.25 23zM6 9.75A3.25 3.25 0 0 0 2.75 13v10A3.25 3.25 0 0 0 6 26.25h14A3.25 3.25 0 0 0 23.25 23V13A3.25 3.25 0 0 0 20 9.75zM28.25 13A3.25 3.25 0 0 0 25 9.75v-1.5A4.75 4.75 0 0 1 29.75 13v10A4.75 4.75 0 0 1 25 27.75v-1.5A3.25 3.25 0 0 0 28.25 23zM30 9.75A3.25 3.25 0 0 1 33.25 13v10A3.25 3.25 0 0 1 30 26.25v1.5A4.75 4.75 0 0 0 34.75 23V13A4.75 4.75 0 0 0 30 8.25z" clip-rule="evenodd" data-original="#000000"></path></g></svg>