<svg xmlns="http://www.w3.org/2000/svg" version="1.1" xmlns:xlink="http://www.w3.org/1999/xlink" xmlns:svgjs="http://svgjs.com/svgjs" width="512" height="512" x="0" y="0" viewBox="0 0 42 42" style="enable-background:new 0 0 512 512" xml:space="preserve" class=""><g><path d="M21 12.75c4.547 0 8.25 3.699 8.25 8.25 0 4.547-3.703 8.246-8.25 8.246S12.75 25.547 12.75 21c0-4.551 3.703-8.25 8.25-8.25zM8.996 7.5c-1.375 0-2.262.797-2.633 1.539S6.004 10.5 6.004 10.5v21s-.012.723.359 1.465c.371.738 1.258 1.535 2.633 1.535h24c1.375 0 2.27-.797 2.641-1.535.371-.742.363-1.465.363-1.465v-21s.012-.719-.363-1.461c-.371-.742-1.266-1.539-2.641-1.539z" fill="#000000" data-original="#000000" class=""></path><path d="M18.77 16.5a.726.726 0 0 0-.383.094v-.004a.756.756 0 0 0-.387.66v7.504a.75.75 0 0 0 1.145.629l6.003-3.746a.753.753 0 0 0 0-1.278l-6.003-3.746a.76.76 0 0 0-.375-.113zM3.75 9a.755.755 0 0 0-.75.75v22.5a.75.75 0 0 0 1.5 0V9.75A.75.75 0 0 0 3.75 9zM.75 10.5a.755.755 0 0 0-.75.75v19.5c0 .414.332.75.75.75a.745.745 0 0 0 .75-.75v-19.5a.75.75 0 0 0-.75-.75zM38.25 9a.75.75 0 0 0-.75.75v22.5a.745.745 0 0 0 .75.75c.418 0 .75-.336.75-.75V9.75a.755.755 0 0 0-.75-.75zM41.254 10.5a.754.754 0 0 0-.754.75v19.5a.746.746 0 0 0 .754.75.747.747 0 0 0 .746-.75v-19.5a.752.752 0 0 0-.746-.75z" fill="#000000" data-original="#000000" class=""></path></g></svg>