<svg xmlns="http://www.w3.org/2000/svg" version="1.1" xmlns:xlink="http://www.w3.org/1999/xlink" xmlns:svgjs="http://svgjs.com/svgjs" width="512" height="512" x="0" y="0" viewBox="0 0 66 66" style="enable-background:new 0 0 512 512" xml:space="preserve" class=""><g><path d="M53.65 20.87a.85.85 0 0 0-.85.85v3.55a.85.85 0 1 0 1.7 0v-3.55a.85.85 0 0 0-.85-.85zM54.5 50.62v-3.55a.85.85 0 1 0-1.7 0v3.55a.85.85 0 1 0 1.7 0zM56.74 53.61h-6.17a.85.85 0 0 0-.85.85v6.17c0 .47.38.85.85.85h6.17c.47 0 .85-.38.85-.85v-6.17a.85.85 0 0 0-.85-.85zm-.85 6.17h-4.47v-4.47h4.47zM11.69 9.31h3.55a.85.85 0 1 0 0-1.7h-3.55a.85.85 0 1 0 0 1.7zM18.03 9.31h3.55a.85.85 0 1 0 0-1.7h-3.55a.85.85 0 1 0 0 1.7zM24.36 9.31h3.55a.85.85 0 1 0 0-1.7h-3.55a.85.85 0 1 0 0 1.7zM30.7 9.31h3.55a.85.85 0 1 0 0-1.7H30.7a.85.85 0 1 0 0 1.7zM37.04 9.31h3.55a.85.85 0 1 0 0-1.7h-3.55a.85.85 0 1 0 0 1.7zM43.37 9.31h3.55a.85.85 0 1 0 0-1.7h-3.55a.85.85 0 1 0 0 1.7zM15.24 56.69h-3.55a.85.85 0 1 0 0 1.7h3.55a.85.85 0 1 0 0-1.7zM21.58 56.69h-3.55a.85.85 0 1 0 0 1.7h3.55a.85.85 0 1 0 0-1.7zM27.91 56.69h-3.55a.85.85 0 1 0 0 1.7h3.55c.47 0 .85-.38.85-.85a.843.843 0 0 0-.85-.85zM34.25 56.69H30.7a.85.85 0 1 0 0 1.7h3.55a.85.85 0 1 0 0-1.7zM40.59 56.69h-3.55a.85.85 0 1 0 0 1.7h3.55a.85.85 0 1 0 0-1.7zM46.92 56.69h-3.55a.85.85 0 1 0 0 1.7h3.55c.47 0 .85-.38.85-.85a.843.843 0 0 0-.85-.85zM4.11 25.27a.85.85 0 1 0 1.7 0v-3.55a.85.85 0 1 0-1.7 0zM4.11 31.61a.85.85 0 1 0 1.7 0v-3.55a.85.85 0 1 0-1.7 0zM4.11 37.94a.85.85 0 1 0 1.7 0v-3.55a.85.85 0 1 0-1.7 0zM4.11 44.28a.85.85 0 1 0 1.7 0v-3.55a.85.85 0 1 0-1.7 0zM4.11 50.62a.85.85 0 1 0 1.7 0v-3.55a.85.85 0 1 0-1.7 0zM4.96 19.78c.47 0 .85-.38.85-.85v-3.55a.85.85 0 1 0-1.7 0v3.55c0 .47.38.85.85.85zM54.51 15.38a.85.85 0 1 0-1.7 0v3.55a.85.85 0 1 0 1.7 0zM8.05 4.52H1.88a.85.85 0 0 0-.85.85v6.17c0 .47.38.85.85.85h6.17c.47 0 .85-.38.85-.85V5.37a.85.85 0 0 0-.85-.85zm-.85 6.17H2.73V6.22H7.2zM50.56 12.39h6.17c.47 0 .85-.38.85-.85V5.37a.85.85 0 0 0-.85-.85h-6.17a.85.85 0 0 0-.85.85v6.17c0 .47.38.85.85.85zm.86-6.17h4.47v4.47h-4.47zM8.05 53.61H1.88a.85.85 0 0 0-.85.85v6.17c0 .47.38.85.85.85h6.17c.47 0 .85-.38.85-.85v-6.17a.85.85 0 0 0-.85-.85zm-.85 6.17H2.73v-4.47H7.2zM64.23 41.26l-3.13-3.04-17.69-17.25s-.01 0-.01-.01l-.01-.01a.814.814 0 0 0-.31-.18c-.01-.01-.02-.02-.04-.02l-6.23-1.81a1.85 1.85 0 0 0-2.27 2.35l1.99 6.19.03.06c0 .01.01.01.01.02.05.12.12.22.22.3l15.05 14.7 2.6 2.52c.01.01.01.02.02.03l3.13 3.04c.46.45 1.07.69 1.71.69h.04c.66-.01 1.27-.28 1.73-.75l3.24-3.34c.92-.98.89-2.54-.08-3.49zM36.18 20.6c.04-.04.07-.05.1-.05.02 0 .04 0 .05.01l4.87 1.42-2.49 2.57-1 1.04-1.56-4.84c-.01-.02-.04-.08.03-.15zm2.35 6.58 2.97-3.07 1.31-1.35L59.3 38.85l-4.29 4.42zm24.53 16.37-3.24 3.34c-.29.3-.77.31-1.07.02l-2.52-2.45 4.3-4.43 2.52 2.45c.29.29.3.77.01 1.07zM13.75 23.36c0 2.67 2.17 4.84 4.84 4.84s4.84-2.17 4.84-4.84-2.17-4.84-4.84-4.84-4.84 2.17-4.84 4.84zm7.98 0c0 1.73-1.41 3.14-3.14 3.14s-3.14-1.41-3.14-3.14 1.41-3.14 3.14-3.14 3.14 1.41 3.14 3.14z" fill="#000000" data-original="#000000" class=""></path><path d="M48.06 42.27a.85.85 0 0 0-.85.85v3.6c0 .09-.02.17-.03.25l-5.96-9.53c-.56-.9-1.53-1.43-2.59-1.43s-2.03.54-2.59 1.43l-2.81 4.5-6.73-10.78c-.56-.9-1.53-1.43-2.59-1.43s-2.03.54-2.59 1.43l-9.89 15.82c-.01-.08-.02-.16-.02-.24V18.53a2.3 2.3 0 0 1 2.3-2.3h31.43c1.14 0 2.07.93 2.07 2.07v2.97a.85.85 0 1 0 1.7 0V18.3c0-2.08-1.69-3.77-3.77-3.77H13.71c-2.21 0-4 1.8-4 4v28.21c0 .96.35 1.82.92 2.51 0 .01.01.01.02.02.73.89 1.83 1.46 3.07 1.46h31.19c2.21 0 4-1.8 4-4v-3.6c0-.48-.38-.86-.85-.86zm-35.65 6.35 10.35-16.56c.25-.4.67-.63 1.14-.63s.89.23 1.14.63l7.18 11.48-3.43 5.48h-15.1c-.46 0-.91-.14-1.28-.4zm18.41.4 6.68-10.68c.5-.8 1.78-.8 2.29 0l6.42 10.27c-.37.25-.82.4-1.3.4H30.82z" fill="#000000" data-original="#000000" class=""></path></g></svg>